<?xml version="1.0" encoding="UTF-8"?>
<!-- Created with Grafika (https://www.grafika.cc/) -->
<svg xmlns="http://www.w3.org/2000/svg" xmlns:svg="http://www.w3.org/2000/svg" xmlns:xlink="http://www.w3.org/1999/xlink" width="163.850921631" height="192.00793457" viewBox="0 0 81.925460815 96.003967285" preserveAspectRatio="xMidYMid meet">
	<path transform="matrix(0.841, 0, 0, 0.841, 37.761, 49.281)" d="M44.46,55.43 L48.84,55.33 L50.01,54.40 C50.97,53.63 51.28,53.27 51.72,52.38 L52.25,51.29 L52.26,41.65 C52.27,36.36 52.33,24.69 52.39,15.73 C52.46,6.77 52.51,-12.19 52.52,-26.41 L52.52,-52.25 L52.03,-53.48 C51.76,-54.16 51.38,-54.92 51.18,-55.17 C50.61,-55.87 48.74,-57.62 48.56,-57.63 C48.47,-57.63 47.96,-57.85 47.43,-58.12 L46.47,-58.61 L10.04,-58.59 C-30.53,-58.58 -27.03,-58.68 -26.81,-57.47 C-26.74,-57.12 -26.47,-56.58 -26.19,-56.26 C-25.91,-55.95 -25.68,-55.59 -25.68,-55.46 C-25.68,-55.33 -25.50,-54.81 -25.27,-54.30 L-24.86,-53.37 L-24.75,-15.25 C-24.69,5.72 -24.66,29.03 -24.68,36.56 L-24.72,50.25 L-25.34,51.57 C-25.68,52.30 -26.18,53.25 -26.46,53.69 C-27.03,54.58 -27.08,54.92 -26.72,55.29 C-26.45,55.56 34.26,55.68 44.46,55.43 ZM-13.69,40.83 C-14.77,40.27 -15.02,38.86 -14.21,37.92 L-13.83,37.48 L4.76,37.40 C14.99,37.36 23.44,37.27 23.54,37.20 C24.42,36.63 25.10,39.17 24.33,40.09 L23.90,40.59 L5.97,40.66 C-5.07,40.70 -12.21,40.79 -12.62,40.88 C-13.12,41.00 -13.39,40.99 -13.69,40.83 ZM-14.02,26.99 C-14.94,26.05 -14.74,24.86 -13.59,24.53 C-12.57,24.24 23.73,24.31 24.03,24.60 C24.58,25.16 24.53,26.73 23.93,27.34 C23.85,27.41 15.42,27.50 5.18,27.54 L-13.43,27.60 L-14.02,26.99 ZM26.45,14.68 C26.39,14.62 17.37,14.56 6.41,14.55 L-13.53,14.53 L-13.99,13.95 C-14.54,13.28 -14.50,12.25 -13.92,11.71 L-13.60,11.41 L13.82,11.44 L41.24,11.48 L41.59,11.82 C42.49,12.72 42.08,14.11 40.82,14.42 C40.11,14.60 26.61,14.84 26.45,14.68 ZM-13.98,1.57 C-14.89,1.02 -14.90,0.00 -13.99,-0.86 L-13.51,-1.32 L13.49,-1.35 L40.48,-1.39 L41.07,-1.08 C42.11,-0.54 42.47,0.86 41.75,1.51 C41.27,1.94 -13.28,2.00 -13.98,1.57 ZM-13.77,-11.18 C-14.58,-11.89 -14.68,-13.02 -13.97,-13.46 L-13.46,-13.77 L13.39,-13.79 C28.16,-13.81 40.55,-13.77 40.92,-13.71 C42.20,-13.50 42.42,-12.01 41.27,-11.34 L40.74,-11.03 L14.71,-11.00 C0.40,-10.99 -11.75,-10.92 -12.28,-10.85 C-13.19,-10.73 -13.27,-10.75 -13.77,-11.18 ZM-13.81,-24.21 C-14.44,-24.70 -14.49,-25.76 -13.92,-26.29 L-13.55,-26.64 L13.51,-26.66 L40.57,-26.69 L41.07,-26.39 C41.68,-26.03 42.05,-25.02 41.72,-24.62 C41.12,-23.89 42.23,-23.92 13.65,-23.88 L-13.33,-23.84 L-13.81,-24.21 ZM-13.90,-37.20 C-14.78,-37.80 -14.78,-39.04 -13.88,-39.49 C-13.09,-39.89 5.53,-39.85 6.15,-39.44 C6.74,-39.06 6.78,-37.86 6.22,-37.50 C5.59,-37.09 2.15,-36.91 -5.76,-36.87 L-13.37,-36.84 L-13.90,-37.20 ZM40.08,-36.86 C40.02,-36.92 34.06,-36.98 26.85,-37.00 C13.37,-37.02 12.73,-37.05 11.80,-37.66 L11.42,-37.90 L11.72,-38.56 C12.27,-39.80 11.29,-39.72 26.73,-39.78 C40.87,-39.83 41.39,-39.81 41.81,-39.39 C42.48,-38.72 41.91,-36.92 41.02,-36.92 C40.81,-36.92 40.54,-36.88 40.42,-36.83 C40.29,-36.79 40.14,-36.80 40.08,-36.86 ZM-31.86,54.66 C-30.55,53.92 -29.50,52.94 -29.16,52.11 C-29.02,51.79 -28.84,51.53 -28.76,51.53 C-28.39,51.53 -28.33,50.01 -28.33,39.89 C-28.33,33.97 -28.23,12.05 -28.12,-8.83 C-27.84,-57.11 -27.79,-54.27 -28.92,-55.96 C-29.92,-57.46 -31.26,-56.58 -32.04,-53.90 L-32.43,-52.59 L-32.43,-13.62 L-32.43,25.35 L-32.90,25.60 C-33.30,25.80 -34.25,25.84 -38.82,25.84 C-43.69,25.84 -44.29,25.87 -44.48,26.11 C-44.66,26.32 -44.73,27.74 -44.84,32.81 C-45.04,42.79 -44.86,45.72 -43.93,47.67 C-43.69,48.16 -43.50,48.67 -43.50,48.82 C-43.50,48.96 -43.21,49.50 -42.86,50.02 C-42.51,50.54 -42.22,51.02 -42.22,51.09 C-42.22,51.28 -40.51,52.97 -40.31,52.97 C-40.22,52.97 -39.98,53.18 -39.79,53.44 C-39.60,53.70 -39.26,53.96 -39.03,54.01 C-38.80,54.07 -38.29,54.34 -37.89,54.62 C-36.39,55.64 -33.65,55.66 -31.86,54.66 ZM-36.20,51.64 C-37.43,51.15 -38.52,50.52 -38.74,50.18 C-38.88,49.97 -39.21,49.56 -39.48,49.26 C-39.75,48.97 -40.09,48.40 -40.24,48.00 C-40.39,47.60 -40.65,47.09 -40.81,46.87 C-41.26,46.24 -41.44,43.43 -41.38,37.85 L-41.33,32.92 L-40.98,32.56 L-40.62,32.20 L-37.69,32.24 C-35.27,32.28 -34.67,32.24 -34.27,32.04 C-33.41,31.58 -32.55,31.84 -32.27,32.63 C-32.00,33.40 -32.06,48.47 -32.33,49.62 C-32.77,51.45 -34.46,52.33 -36.20,51.64 Z" style="fill:currentColor;" />
</svg>